<?xml version="1.0" encoding="utf-8"?>
<!-- Generator: Adobe Illustrator 28.2.0, SVG Export Plug-In . SVG Version: 6.00 Build 0)  -->
<svg version="1.1" id="Layer_1" xmlns:xodm="http://www.corel.com/coreldraw/odm/2003"
	 xmlns="http://www.w3.org/2000/svg" xmlns:xlink="http://www.w3.org/1999/xlink" x="0px" y="0px" viewBox="0 0 800 480"
	 style="enable-background:new 0 0 800 480;" xml:space="preserve">
<style type="text/css">
	.st0{fill-rule:evenodd;clip-rule:evenodd;fill:#999999;}
	.st1{fill:none;stroke:#000000;stroke-width:2;stroke-miterlimit:22.9256;}
	.st2{fill-rule:evenodd;clip-rule:evenodd;fill:#666666;}
</style>
<rect class="st0" width="800" height="480"/>
<g id="_2178569062512">
	<path class="st0" d="M616.4,95h157.2c6.3,0,11.4,4.5,11.4,10v100c0,5.5-5.1,10-11.4,10H616.4c-6.3,0-11.4-4.5-11.4-10V105
		C605,99.5,610.1,95,616.4,95z"/>
	<path class="st0" d="M616.4,225h157.2c6.3,0,11.4,4.5,11.4,10v100c0,5.5-5.1,10-11.4,10H616.4c-6.3,0-11.4-4.5-11.4-10V235
		C605,229.5,610.1,225,616.4,225z"/>
	<path class="st0" d="M426.4,95h157.2c6.3,0,11.4,4.5,11.4,10v100c0,5.5-5.1,10-11.4,10H426.4c-6.3,0-11.4-4.5-11.4-10V105
		C415,99.5,420.1,95,426.4,95z"/>
	<path class="st0" d="M426.4,225h157.2c6.3,0,11.4,4.5,11.4,10v100c0,5.5-5.1,10-11.4,10H426.4c-6.3,0-11.4-4.5-11.4-10V235
		C415,229.5,420.1,225,426.4,225z"/>
</g>
<rect class="st1" width="120" height="480"/>
<polygon class="st2" points="120,0 0,0 0,480 120,480 "/>
<path class="st2" d="M120,115H35c-11,0-20,12-20,26.7v26.7C15,183,24,195,35,195h85V115z"/>
<path class="st2" d="M120,15H35c-11,0-20,12-20,26.7v26.7C15,83,24,95,35,95h85V15z"/>
<path class="st2" d="M121,215H35.2C24.1,215,15,227,15,241.7v26.7C15,283,24.1,295,35.2,295H121V215z"/>
<path class="st0" d="M122,315H37c-11,0-20,12-20,26.7v26.7C17,383,26,395,37,395h85V315L122,315z"/>
</svg>
